<svg width="25" height="25" viewBox="0 0 25 25" fill="none" xmlns="http://www.w3.org/2000/svg">
<path d="M21.4422 4.05482C19.1794 1.78707 16.1622 0.538086 12.959 0.538086C9.75572 0.538086 6.73858 1.78707 4.47572 4.05482C2.21286 6.32258 0.958984 9.33482 0.958984 12.5381C0.958984 15.7414 2.20796 18.7585 4.47572 21.0214C6.74347 23.2842 9.75572 24.5381 12.959 24.5381C16.1622 24.5381 19.1794 23.2891 21.4422 21.0214C23.7051 18.7536 24.959 15.7414 24.959 12.5381C24.959 9.33482 23.71 6.31768 21.4422 4.05482ZM23.8716 11.9993H19.2186C19.1745 10.1479 18.9149 8.36502 18.4594 6.78298C19.3459 6.32747 20.1737 5.75441 20.9329 5.07849C22.6471 6.91033 23.7394 9.32992 23.8716 11.9993ZM13.4978 13.0769H18.1459C18.1067 14.7814 17.8716 16.4124 17.4651 17.872C16.2112 17.3675 14.8741 17.0736 13.4978 17.0099V13.0769ZM20.159 4.32911C19.532 4.88258 18.8463 5.35278 18.1214 5.74462C17.9353 5.22543 17.7247 4.73564 17.4896 4.27523C17.0243 3.35441 16.4953 2.60013 15.9125 2.02217C17.5043 2.46788 18.9492 3.26625 20.159 4.32911ZM13.4978 1.78217C14.6194 2.03196 15.6774 3.06543 16.5296 4.75033C16.7598 5.20584 16.9655 5.69074 17.1467 6.20502C15.9957 6.68013 14.7663 6.95931 13.4978 7.02298V1.78217ZM17.47 7.23849C17.8716 8.68829 18.1018 10.3095 18.141 12.0042H13.4978V8.10543C14.879 8.04176 16.2161 7.74298 17.47 7.23849ZM12.4202 11.9993H7.77205C7.81123 10.3046 8.04143 8.68339 8.44307 7.2336C9.69694 7.74298 11.039 8.03686 12.4153 8.09564V11.9993H12.4202ZM12.4251 1.78217V7.02298C11.1565 6.95931 9.92225 6.68013 8.77613 6.20502C8.95735 5.69074 9.16307 5.20584 9.39327 4.75033C10.2455 3.06543 11.3035 2.03196 12.4251 1.78217ZM10.0104 2.02217C9.42756 2.60013 8.89858 3.35931 8.43327 4.27523C8.20307 4.73564 7.99245 5.22543 7.80143 5.74462C7.07654 5.35278 6.39572 4.88258 5.76388 4.32911C6.97368 3.26625 8.41858 2.46788 10.0104 2.02217ZM4.99001 5.07849C5.74919 5.75441 6.57694 6.32258 7.46347 6.78298C7.00796 8.36992 6.74347 10.1479 6.70429 11.9993H2.05123C2.18347 9.32992 3.27572 6.91033 4.99001 5.07849ZM2.05123 13.0769H6.70429C6.74837 14.943 7.01286 16.7307 7.47327 18.3226C6.59164 18.7781 5.76388 19.3414 5.0096 20.0173C3.28062 18.1805 2.18347 15.756 2.05123 13.0769ZM5.78347 20.7667C6.41041 20.2181 7.09123 19.7479 7.81123 19.3609C7.99735 19.8654 8.20307 20.3503 8.43327 20.8009C8.89858 21.7218 9.42756 22.476 10.0104 23.0589C8.42837 22.6132 6.98837 21.8197 5.78347 20.7667ZM12.4251 23.294C11.3035 23.0442 10.2455 22.0107 9.39327 20.3258C9.16796 19.8801 8.96715 19.405 8.78592 18.9005C9.93205 18.4254 11.1614 18.1462 12.4251 18.0875V23.294ZM8.45776 17.872C8.05123 16.4124 7.81613 14.7814 7.77694 13.0769H12.4251V17.0099C11.0488 17.0687 9.71164 17.3626 8.45776 17.872ZM13.5027 23.294V18.0875C14.7663 18.1511 15.9957 18.4254 17.1418 18.9005C16.9606 19.405 16.7598 19.8801 16.5345 20.3258C15.6823 22.0107 14.6243 23.0442 13.5027 23.294ZM15.9174 23.054C16.5002 22.476 17.0292 21.7169 17.4945 20.796C17.7247 20.3454 17.9304 19.8605 18.1165 19.356C18.8365 19.743 19.5174 20.2132 20.1443 20.7618C18.9394 21.8197 17.4994 22.6132 15.9174 23.054ZM20.9231 20.0173C20.1688 19.3463 19.341 18.7781 18.4594 18.3226C18.9198 16.7307 19.1843 14.9381 19.2284 13.0769H23.8814C23.7443 15.756 22.6471 18.1805 20.9231 20.0173Z" fill="#000F30"/>
</svg>
