<svg width="62" height="62" viewBox="0 0 62 62" fill="none" xmlns="http://www.w3.org/2000/svg">
<g id="fi-rr-play" clip-path="url(#clip0_413_1861)">
<path id="Vector" d="M52.8883 20.6089L28.3045 2.57044C26.3844 1.16443 24.1124 0.31768 21.7404 0.124073C19.3685 -0.0695336 16.9893 0.397571 14.8666 1.47359C12.7439 2.54961 10.9607 4.19251 9.71469 6.2201C8.4687 8.24769 7.80861 10.5808 7.80762 12.9606V49.0375C7.80804 51.4184 8.46817 53.7527 9.71473 55.7812C10.9613 57.8097 12.7456 59.4531 14.8695 60.5291C16.9934 61.6051 19.3739 62.0715 21.7468 61.8766C24.1198 61.6817 26.3923 60.8332 28.3122 59.4251L52.896 41.3866C54.5279 40.1899 55.855 38.6256 56.7697 36.8205C57.6844 35.0154 58.1611 33.0201 58.1611 30.9965C58.1611 28.9728 57.6844 26.9776 56.7697 25.1725C55.855 23.3673 54.5279 21.8031 52.896 20.6063L52.8883 20.6089ZM49.8372 37.2301L25.2534 55.2685C24.1015 56.1102 22.7393 56.6168 21.3173 56.7321C19.8954 56.8475 18.4693 56.5671 17.1968 55.9221C15.9244 55.2771 14.8552 54.2925 14.1077 53.0774C13.3602 51.8624 12.9635 50.4641 12.9615 49.0375V12.9606C12.9472 11.5313 13.3364 10.127 14.0844 8.90896C14.8325 7.69095 15.9089 6.7087 17.1902 6.07506C18.28 5.52074 19.4851 5.23116 20.7077 5.22983C22.3463 5.23608 23.9397 5.76811 25.2534 6.74763L49.8372 24.7861C50.8152 25.5043 51.6103 26.4426 52.1584 27.525C52.7065 28.6075 52.992 29.8038 52.992 31.0171C52.992 32.2304 52.7065 33.4267 52.1584 34.5092C51.6103 35.5916 50.8152 36.5299 49.8372 37.2481V37.2301Z" fill="white"/>
</g>
<defs>
<clipPath id="clip0_413_1861">
<rect width="61.8462" height="61.8462" fill="white" transform="translate(0.0771484 0.0769348)"/>
</clipPath>
</defs>
</svg>
